<svg xmlns="http://www.w3.org/2000/svg" width="128" height="128" viewBox="0 0 128 128">
  <rect x="2" y="2" width="124" height="124" rx="14" fill="#363d52" stroke="#212532" stroke-width="4"/>
  <g fill="#ffffff">
    <circle cx="64" cy="64" r="18"/>
    <g transform="translate(64 64)">
      <rect x="-6" y="-54" width="12" height="16" rx="4"/>
      <rect x="-6" y="38" width="12" height="16" rx="4"/>
      <rect x="-54" y="-6" width="16" height="12" rx="4"/>
      <rect x="38" y="-6" width="16" height="12" rx="4"/>
      <rect x="-6" y="-54" width="12" height="16" rx="4" transform="rotate(45)"/>
      <rect x="-6" y="-54" width="12" height="16" rx="4" transform="rotate(90)"/>
      <rect x="-6" y="-54" width="12" height="16" rx="4" transform="rotate(135)"/>
      <rect x="-6" y="-54" width="12" height="16" rx="4" transform="rotate(180)"/>
      <rect x="-6" y="-54" width="12" height="16" rx="4" transform="rotate(225)"/>
      <rect x="-6" y="-54" width="12" height="16" rx="4" transform="rotate(270)"/>
      <rect x="-6" y="-54" width="12" height="16" rx="4" transform="rotate(315)"/>
    </g>
    <circle cx="64" cy="64" r="8" fill="#363d52"/>
  </g>
</svg>
